# xmcd
#
# Track frame offsets: 
#        150
#        11293
#        34728
#        56183
#        78143
#        97030
#        107369
#        117991
#        133744
#        155249
#        167508
#        181993
#        193112
#
# Disc length: 3008 seconds
#
# Revision: 0
# Processed by: cddbd v1.5.2PL0 Copyright (c) Steve Scherf et al.
# Submitted via: ExactAudioCopyFreeDBPlugin 1.0
#
DISCID=a50bbe0d
DTITLE=Blues Blend - One More Turn
DYEAR=2012
DGENRE=Blues
TTITLE0=Fatman
TTITLE1=Undertaker Blues
TTITLE2=You Give Me A Buzz
TTITLE3=Let's Sleep In Late
TTITLE4=What Was Going On Last Night
TTITLE5=Bopsody In Blues
TTITLE6=Please Slow Down
TTITLE7=Underwater
TTITLE8=One More Turn
TTITLE9=L-O-V-E
TTITLE10=Felafel Blues
TTITLE11=High Heels and Diapers
TTITLE12=Jerusalem Ridge-Bad Guitar Blues
EXTD=
EXTT0=
EXTT1=
EXTT2=
EXTT3=
EXTT4=
EXTT5=
EXTT6=
EXTT7=
EXTT8=
EXTT9=
EXTT10=
EXTT11=
EXTT12=
PLAYORDER=
